<svg width="66" height="70" viewBox="0 0 66 70" fill="none" xmlns="http://www.w3.org/2000/svg">
<path d="M65.3158 48.3385L46.8463 29.7337L48.8961 19.6373C49.4251 19.8438 49.9874 19.9517 50.5551 19.9558H50.5691C53.1772 19.9866 55.3164 17.8974 55.3474 15.2893C55.3783 12.6812 53.2889 10.542 50.6808 10.5111C48.0728 10.4803 45.9335 12.5695 45.9026 15.1776C45.896 15.7357 45.9884 16.2905 46.1755 16.8163L35.3255 18.1405L17.6271 0.35C17.41 0.128479 17.1137 0.00247917 16.8035 0C16.4972 0.00160417 16.2039 0.123521 15.9868 0.3395L12.6781 3.6295C12.2227 4.08508 12.2227 4.82358 12.6781 5.27917L14.4585 7.08517C7.56113 19.7681 9.80142 35.4741 19.9698 45.7228C20.0631 45.8121 20.1713 45.8843 20.2895 45.9363C20.216 46.3311 20.1776 46.7317 20.1751 47.1333V60.6667H6.17513C2.95513 60.6705 0.345589 63.28 0.341797 66.5V68.8333C0.341797 69.4776 0.864172 70 1.50846 70H55.1751C55.8194 70 56.3418 69.4776 56.3418 68.8333V66.5C56.338 63.28 53.7285 60.6705 50.5085 60.6667H36.5085V54.6688C38.7017 55.1288 40.9363 55.3633 43.1771 55.3688C48.5543 55.363 53.8459 54.0225 58.5771 51.4675L60.3668 53.2677C60.5839 53.4892 60.8803 53.6152 61.1905 53.6177C61.4967 53.6161 61.79 53.4941 62.0071 53.2782L65.3158 49.9882C65.7712 49.5326 65.7712 48.7941 65.3158 48.3385ZM48.9241 13.6348C49.8378 12.726 51.3152 12.7301 52.2239 13.6437C53.1327 14.5574 53.1287 16.0348 52.215 16.9435C51.7777 17.3785 51.1859 17.6226 50.569 17.6225H50.562C49.2734 17.6158 48.234 16.5658 48.2408 15.2771C48.244 14.6602 48.4913 14.0699 48.9287 13.6348H48.9241ZM46.1778 21.301L44.8688 27.7445L42.2975 25.158L46.1778 21.301ZM44.8525 19.3282L40.6525 23.5037L37.4033 20.237L44.8525 19.3282ZM50.5085 63C52.4415 63 54.0085 64.567 54.0085 66.5V67.6667H2.67513V66.5C2.67513 64.567 4.24211 63 6.17513 63H50.5085ZM34.1751 58.3333V60.6667H22.5085V58.3333H34.1751ZM22.5085 56V47.1333C22.5085 44.303 25.1253 42 28.3418 42C31.5583 42 34.1751 44.303 34.1751 47.1333V56H22.5085ZM36.5085 52.29V47.1333C36.5085 43.0162 32.8451 39.6667 28.3418 39.6667C25.4301 39.622 22.7074 41.1041 21.1645 43.5738C12.2882 34.2249 10.2894 20.2875 16.18 8.82073L56.8715 49.7455C50.5881 52.9419 43.3852 53.8418 36.5085 52.29ZM61.2033 50.7943L59.5595 49.1412L16.7918 6.11567L15.141 4.46133L16.7918 2.81633L34.1495 20.272C34.1576 20.272 34.1623 20.2872 34.1705 20.293L62.8588 49.1493L61.2033 50.7943Z" fill="#212121"/>
</svg>
