<svg width="70" height="70" viewBox="0 0 70 70" fill="none" xmlns="http://www.w3.org/2000/svg">
<path d="M67.3158 48.3385L48.8463 29.7337L50.8961 19.6373C51.4251 19.8438 51.9874 19.9517 52.5551 19.9558H52.5691C55.1772 19.9866 57.3164 17.8974 57.3474 15.2893C57.3783 12.6812 55.2889 10.542 52.6808 10.5111C50.0728 10.4803 47.9335 12.5695 47.9026 15.1776C47.896 15.7357 47.9884 16.2905 48.1755 16.8163L37.3255 18.1405L19.6271 0.35C19.41 0.128479 19.1137 0.00247917 18.8035 0C18.4972 0.00160417 18.2039 0.123521 17.9868 0.3395L14.6781 3.6295C14.2227 4.08508 14.2227 4.82358 14.6781 5.27917L16.4585 7.08517C9.56113 19.7681 11.8014 35.4741 21.9698 45.7228C22.0631 45.8121 22.1713 45.8843 22.2895 45.9363C22.216 46.3311 22.1776 46.7317 22.1751 47.1333V60.6667H8.17513C4.95513 60.6705 2.34559 63.28 2.3418 66.5V68.8333C2.3418 69.4776 2.86417 70 3.50846 70H57.1751C57.8194 70 58.3418 69.4776 58.3418 68.8333V66.5C58.338 63.28 55.7285 60.6705 52.5085 60.6667H38.5085V54.6688C40.7017 55.1288 42.9363 55.3633 45.1771 55.3688C50.5543 55.363 55.8459 54.0225 60.5771 51.4675L62.3668 53.2677C62.5839 53.4892 62.8803 53.6152 63.1905 53.6177C63.4967 53.6161 63.79 53.4941 64.0071 53.2782L67.3158 49.9882C67.7712 49.5326 67.7712 48.7941 67.3158 48.3385ZM50.9241 13.6348C51.8378 12.726 53.3152 12.7301 54.2239 13.6437C55.1327 14.5574 55.1287 16.0348 54.215 16.9435C53.7777 17.3785 53.1859 17.6226 52.569 17.6225H52.562C51.2734 17.6158 50.234 16.5658 50.2408 15.2771C50.244 14.6602 50.4913 14.0699 50.9287 13.6348H50.9241ZM48.1778 21.301L46.8688 27.7445L44.2975 25.158L48.1778 21.301ZM46.8525 19.3282L42.6525 23.5037L39.4033 20.237L46.8525 19.3282ZM52.5085 63C54.4415 63 56.0085 64.567 56.0085 66.5V67.6667H4.67513V66.5C4.67513 64.567 6.24211 63 8.17513 63H52.5085ZM36.1751 58.3333V60.6667H24.5085V58.3333H36.1751ZM24.5085 56V47.1333C24.5085 44.303 27.1253 42 30.3418 42C33.5583 42 36.1751 44.303 36.1751 47.1333V56H24.5085ZM38.5085 52.29V47.1333C38.5085 43.0162 34.8451 39.6667 30.3418 39.6667C27.4301 39.622 24.7074 41.1041 23.1645 43.5738C14.2882 34.2249 12.2894 20.2875 18.18 8.82073L58.8715 49.7455C52.5881 52.9419 45.3852 53.8418 38.5085 52.29ZM63.2033 50.7943L61.5595 49.1412L18.7918 6.11567L17.141 4.46133L18.7918 2.81633L36.1495 20.272C36.1576 20.272 36.1623 20.2872 36.1705 20.293L64.8588 49.1493L63.2033 50.7943Z" fill="#212121"/>
<path d="M30.3527 44.3335H30.3422C28.4091 44.3306 26.8398 45.8952 26.8369 47.8283C26.834 49.7613 28.3986 51.3306 30.3317 51.3335H30.3422C32.2752 51.3364 33.8445 49.7718 33.8474 47.8388C33.8503 45.9057 32.2857 44.3364 30.3527 44.3335ZM31.1693 48.6607C30.9497 48.8791 30.6521 49.0013 30.3422 49.0002C29.6979 48.9968 29.1783 48.4718 29.1816 47.8275C29.1832 47.5191 29.3069 47.2239 29.5255 47.0063C29.7426 46.7904 30.0359 46.6684 30.3422 46.6668C30.9865 46.6702 31.5061 47.1952 31.5027 47.8395C31.5011 48.1479 31.3774 48.4431 31.1588 48.6607H31.1693Z" fill="#2196F3"/>
</svg>
