<svg width="155" height="22" viewBox="0 0 155 22" fill="none" xmlns="http://www.w3.org/2000/svg">
<path d="M10.294 1.592H13.596L15.676 7.702L17.756 1.592H21.084L17.938 9.99L20.278 15.892L25.504 1.54H29.404L21.89 20H18.874L15.676 12.252L12.478 20H9.462L2 1.54H5.848L11.1 15.892L13.388 9.99L10.294 1.592ZM36.3793 20.26C35.2873 20.26 34.2993 20.078 33.4153 19.714C32.5313 19.3327 31.7773 18.8213 31.1533 18.18C30.5293 17.5387 30.044 16.7933 29.6973 15.944C29.368 15.0947 29.2033 14.202 29.2033 13.266C29.2033 12.2953 29.368 11.3853 29.6973 10.536C30.0266 9.66933 30.5033 8.91533 31.1273 8.274C31.7513 7.61533 32.5053 7.09533 33.3893 6.714C34.2906 6.33267 35.296 6.142 36.4053 6.142C37.5146 6.142 38.5026 6.33267 39.3693 6.714C40.2533 7.09533 40.9986 7.60667 41.6053 8.248C42.2293 8.88933 42.6973 9.63467 43.0093 10.484C43.3386 11.3333 43.5033 12.2173 43.5033 13.136C43.5033 13.3613 43.4946 13.578 43.4773 13.786C43.4773 13.994 43.46 14.1673 43.4253 14.306H32.8953C32.9473 14.8433 33.0773 15.32 33.2853 15.736C33.4933 16.152 33.762 16.5073 34.0913 16.802C34.4206 17.0967 34.7933 17.322 35.2093 17.478C35.6253 17.634 36.0586 17.712 36.5093 17.712C37.2026 17.712 37.8526 17.5473 38.4593 17.218C39.0833 16.8713 39.508 16.4207 39.7333 15.866L42.7233 16.698C42.2206 17.738 41.4146 18.596 40.3053 19.272C39.2133 19.9307 37.9046 20.26 36.3793 20.26ZM39.9153 12.044C39.8286 11.0213 39.4473 10.2067 38.7713 9.6C38.1126 8.976 37.3066 8.664 36.3533 8.664C35.8853 8.664 35.4433 8.75067 35.0273 8.924C34.6286 9.08 34.2733 9.30533 33.9613 9.6C33.6493 9.89467 33.3893 10.25 33.1813 10.666C32.9906 11.082 32.878 11.5413 32.8433 12.044H39.9153ZM54.1538 20.26C53.1138 20.26 52.1864 20.026 51.3718 19.558C50.5571 19.09 49.9158 18.4487 49.4478 17.634V20H46.4058V1.02H49.8898V8.768C50.3751 7.936 51.0078 7.29467 51.7878 6.844C52.5851 6.376 53.5124 6.142 54.5698 6.142C55.4538 6.142 56.2598 6.33267 56.9878 6.714C57.7158 7.09533 58.3398 7.60667 58.8598 8.248C59.3971 8.88933 59.8044 9.64333 60.0818 10.51C60.3764 11.3767 60.5238 12.2867 60.5238 13.24C60.5238 14.228 60.3591 15.1467 60.0298 15.996C59.7178 16.8453 59.2758 17.5907 58.7038 18.232C58.1318 18.856 57.4558 19.35 56.6758 19.714C55.8958 20.078 55.0551 20.26 54.1538 20.26ZM53.1918 17.296C53.7464 17.296 54.2578 17.192 54.7258 16.984C55.1938 16.7587 55.5924 16.464 55.9218 16.1C56.2511 15.736 56.5024 15.3113 56.6758 14.826C56.8664 14.3407 56.9618 13.8207 56.9618 13.266C56.9618 12.7113 56.8751 12.1827 56.7018 11.68C56.5284 11.1773 56.2771 10.7353 55.9478 10.354C55.6358 9.97267 55.2631 9.66933 54.8298 9.444C54.3964 9.21867 53.9198 9.106 53.3998 9.106C52.6198 9.106 51.9178 9.366 51.2938 9.886C50.6871 10.3887 50.2191 11.0127 49.8898 11.758V15.008C50.0111 15.3547 50.1844 15.6667 50.4098 15.944C50.6524 16.2213 50.9211 16.464 51.2158 16.672C51.5104 16.8627 51.8311 17.0187 52.1778 17.14C52.5244 17.244 52.8624 17.296 53.1918 17.296Z" fill="#2196F3"/>
<path d="M82.0264 6.376C81.905 6.25467 81.6797 6.09 81.3504 5.882C81.0384 5.674 80.6484 5.47467 80.1804 5.284C79.7297 5.076 79.2357 4.90267 78.6984 4.764C78.161 4.62533 77.615 4.556 77.0604 4.556C76.0724 4.556 75.3357 4.738 74.8504 5.102C74.365 5.466 74.1224 5.97733 74.1224 6.636C74.1224 7.01733 74.209 7.338 74.3824 7.598C74.573 7.84067 74.8417 8.05733 75.1884 8.248C75.535 8.43867 75.9684 8.612 76.4884 8.768C77.0257 8.924 77.641 9.08867 78.3344 9.262C79.2357 9.50467 80.0504 9.76467 80.7784 10.042C81.5237 10.3193 82.1477 10.666 82.6504 11.082C83.1704 11.498 83.569 12.0007 83.8464 12.59C84.1237 13.162 84.2624 13.8727 84.2624 14.722C84.2624 15.71 84.0717 16.5593 83.6904 17.27C83.3264 17.9633 82.8237 18.5267 82.1824 18.96C81.5584 19.3933 80.8304 19.714 79.9984 19.922C79.1837 20.1127 78.3257 20.208 77.4244 20.208C76.0377 20.208 74.6684 20 73.3164 19.584C71.9644 19.168 70.751 18.5787 69.6764 17.816L71.2624 14.722C71.4184 14.878 71.6957 15.086 72.0944 15.346C72.5104 15.5887 72.9957 15.84 73.5504 16.1C74.105 16.3427 74.7204 16.5507 75.3964 16.724C76.0724 16.8973 76.7657 16.984 77.4764 16.984C79.4524 16.984 80.4404 16.3513 80.4404 15.086C80.4404 14.6873 80.3277 14.3493 80.1024 14.072C79.877 13.7947 79.5564 13.552 79.1404 13.344C78.7244 13.136 78.2217 12.9453 77.6324 12.772C77.043 12.5987 76.3844 12.408 75.6564 12.2C74.7724 11.9573 74.001 11.6973 73.3424 11.42C72.701 11.1253 72.1637 10.7873 71.7304 10.406C71.297 10.0073 70.9677 9.55667 70.7424 9.054C70.5344 8.534 70.4304 7.91867 70.4304 7.208C70.4304 6.272 70.6037 5.44 70.9504 4.712C71.297 3.984 71.7737 3.37733 72.3804 2.892C73.0044 2.40667 73.7237 2.04267 74.5384 1.8C75.353 1.54 76.2284 1.41 77.1644 1.41C78.4644 1.41 79.6604 1.618 80.7524 2.034C81.8444 2.43267 82.7977 2.90933 83.6124 3.464L82.0264 6.376ZM95.4273 19.298C94.9593 19.506 94.3873 19.714 93.7113 19.922C93.0353 20.13 92.3247 20.234 91.5793 20.234C91.094 20.234 90.6347 20.1733 90.2013 20.052C89.7853 19.9307 89.4127 19.74 89.0833 19.48C88.7713 19.2027 88.52 18.856 88.3293 18.44C88.1387 18.0067 88.0433 17.4867 88.0433 16.88V9.054H86.2493V6.376H88.0433V1.956H91.5273V6.376H94.3873V9.054H91.5273V15.71C91.5273 16.1953 91.6487 16.542 91.8913 16.75C92.1513 16.9407 92.4633 17.036 92.8273 17.036C93.1913 17.036 93.5467 16.9753 93.8933 16.854C94.24 16.7327 94.5173 16.6287 94.7253 16.542L95.4273 19.298ZM102.182 20.26C100.778 20.26 99.7119 19.8093 98.9839 18.908C98.2559 18.0067 97.8919 16.672 97.8919 14.904V6.376H101.376V14.15C101.376 16.2473 102.13 17.296 103.638 17.296C104.314 17.296 104.964 17.0967 105.588 16.698C106.229 16.282 106.749 15.658 107.148 14.826V6.376H110.632V15.996C110.632 16.36 110.693 16.62 110.814 16.776C110.953 16.932 111.169 17.0187 111.464 17.036V20C111.117 20.0693 110.823 20.1127 110.58 20.13C110.355 20.1473 110.147 20.156 109.956 20.156C109.332 20.156 108.821 20.0173 108.422 19.74C108.041 19.4453 107.815 19.0467 107.746 18.544L107.668 17.452C107.061 18.388 106.281 19.09 105.328 19.558C104.375 20.026 103.326 20.26 102.182 20.26ZM120.516 20.26C119.58 20.26 118.713 20.078 117.916 19.714C117.119 19.35 116.434 18.8473 115.862 18.206C115.29 17.5647 114.839 16.8193 114.51 15.97C114.198 15.1033 114.042 14.176 114.042 13.188C114.042 12.2 114.189 11.2813 114.484 10.432C114.796 9.58267 115.221 8.83733 115.758 8.196C116.295 7.55467 116.937 7.052 117.682 6.688C118.427 6.324 119.242 6.142 120.126 6.142C121.131 6.142 122.033 6.38467 122.83 6.87C123.645 7.35533 124.277 7.988 124.728 8.768V1.02H128.212V15.996C128.212 16.36 128.273 16.62 128.394 16.776C128.515 16.932 128.723 17.0187 129.018 17.036V20C128.411 20.1213 127.917 20.182 127.536 20.182C126.912 20.182 126.401 20.026 126.002 19.714C125.603 19.402 125.378 18.9947 125.326 18.492L125.248 17.634C124.745 18.5007 124.061 19.1593 123.194 19.61C122.345 20.0433 121.452 20.26 120.516 20.26ZM121.426 17.296C121.755 17.296 122.093 17.244 122.44 17.14C122.787 17.0187 123.107 16.854 123.402 16.646C123.697 16.438 123.957 16.1953 124.182 15.918C124.425 15.6407 124.607 15.3373 124.728 15.008V11.758C124.589 11.3767 124.39 11.03 124.13 10.718C123.887 10.3887 123.601 10.1113 123.272 9.886C122.96 9.64333 122.622 9.45267 122.258 9.314C121.911 9.17533 121.565 9.106 121.218 9.106C120.698 9.106 120.213 9.21867 119.762 9.444C119.329 9.66933 118.956 9.98133 118.644 10.38C118.332 10.7613 118.089 11.2033 117.916 11.706C117.743 12.2087 117.656 12.7287 117.656 13.266C117.656 13.838 117.751 14.3667 117.942 14.852C118.133 15.3373 118.393 15.762 118.722 16.126C119.051 16.49 119.441 16.776 119.892 16.984C120.36 17.192 120.871 17.296 121.426 17.296ZM132.412 20V6.376H135.896V20H132.412ZM132.412 4.478V1.02H135.896V4.478H132.412ZM146.111 20.26C145.002 20.26 144.005 20.0693 143.121 19.688C142.237 19.3067 141.483 18.7953 140.859 18.154C140.252 17.4953 139.784 16.7413 139.455 15.892C139.126 15.0427 138.961 14.15 138.961 13.214C138.961 12.2607 139.126 11.3593 139.455 10.51C139.784 9.66067 140.252 8.91533 140.859 8.274C141.483 7.61533 142.237 7.09533 143.121 6.714C144.005 6.33267 145.002 6.142 146.111 6.142C147.22 6.142 148.208 6.33267 149.075 6.714C149.959 7.09533 150.704 7.61533 151.311 8.274C151.935 8.91533 152.412 9.66067 152.741 10.51C153.07 11.3593 153.235 12.2607 153.235 13.214C153.235 14.15 153.07 15.0427 152.741 15.892C152.412 16.7413 151.944 17.4953 151.337 18.154C150.73 18.7953 149.985 19.3067 149.101 19.688C148.217 20.0693 147.22 20.26 146.111 20.26ZM142.549 13.214C142.549 13.8207 142.636 14.3753 142.809 14.878C143 15.3633 143.251 15.788 143.563 16.152C143.892 16.516 144.274 16.802 144.707 17.01C145.14 17.2007 145.608 17.296 146.111 17.296C146.614 17.296 147.082 17.2007 147.515 17.01C147.948 16.802 148.321 16.516 148.633 16.152C148.962 15.788 149.214 15.3547 149.387 14.852C149.578 14.3493 149.673 13.7947 149.673 13.188C149.673 12.5987 149.578 12.0527 149.387 11.55C149.214 11.0473 148.962 10.614 148.633 10.25C148.321 9.886 147.948 9.60867 147.515 9.418C147.082 9.21 146.614 9.106 146.111 9.106C145.608 9.106 145.14 9.21 144.707 9.418C144.274 9.626 143.892 9.912 143.563 10.276C143.251 10.64 143 11.0733 142.809 11.576C142.636 12.0787 142.549 12.6247 142.549 13.214Z" fill="black"/>
<path d="M10.294 1.592V0.592H8.85987L9.35566 1.93771L10.294 1.592ZM13.596 1.592L14.5427 1.26974L14.3119 0.592H13.596V1.592ZM15.676 7.702L14.7294 8.02426L15.676 10.805L16.6227 8.02426L15.676 7.702ZM17.756 1.592V0.592H17.0401L16.8094 1.26974L17.756 1.592ZM21.084 1.592L22.0204 1.94281L22.5265 0.592H21.084V1.592ZM17.938 9.99L17.0016 9.63919L16.8663 10.0002L17.0084 10.3586L17.938 9.99ZM20.278 15.892L19.3484 16.2606L20.3178 18.7055L21.2176 16.2342L20.278 15.892ZM25.504 1.54V0.539999H24.8039L24.5644 1.19785L25.504 1.54ZM29.404 1.54L30.3302 1.91701L30.8907 0.539999H29.404V1.54ZM21.89 20V21H22.5626L22.8162 20.377L21.89 20ZM18.874 20L17.9496 20.3815L18.2049 21H18.874V20ZM15.676 12.252L16.6004 11.8705L15.676 9.63097L14.7516 11.8705L15.676 12.252ZM12.478 20V21H13.1471L13.4024 20.3815L12.478 20ZM9.462 20L8.53488 20.3748L8.78762 21H9.462V20ZM2 1.54V0.539999H0.517165L1.07288 1.91476L2 1.54ZM5.848 1.54L6.7871 1.19634L6.54691 0.539999H5.848V1.54ZM11.1 15.892L10.1609 16.2357L11.073 18.7282L12.0324 16.2535L11.1 15.892ZM13.388 9.99L14.3204 10.3515L14.457 9.999L14.3263 9.64429L13.388 9.99ZM10.294 2.592H13.596V0.592H10.294V2.592ZM12.6494 1.91426L14.7294 8.02426L16.6227 7.37974L14.5427 1.26974L12.6494 1.91426ZM16.6227 8.02426L18.7027 1.91426L16.8094 1.26974L14.7294 7.37974L16.6227 8.02426ZM17.756 2.592H21.084V0.592H17.756V2.592ZM20.1476 1.24119L17.0016 9.63919L18.8744 10.3408L22.0204 1.94281L20.1476 1.24119ZM17.0084 10.3586L19.3484 16.2606L21.2076 15.5234L18.8676 9.62144L17.0084 10.3586ZM21.2176 16.2342L26.4436 1.88215L24.5644 1.19785L19.3384 15.5498L21.2176 16.2342ZM25.504 2.54H29.404V0.539999H25.504V2.54ZM28.4778 1.16299L20.9638 19.623L22.8162 20.377L30.3302 1.91701L28.4778 1.16299ZM21.89 19H18.874V21H21.89V19ZM19.7984 19.6185L16.6004 11.8705L14.7516 12.6335L17.9496 20.3815L19.7984 19.6185ZM14.7516 11.8705L11.5536 19.6185L13.4024 20.3815L16.6004 12.6335L14.7516 11.8705ZM12.478 19H9.462V21H12.478V19ZM10.3891 19.6252L2.92712 1.16523L1.07288 1.91476L8.53488 20.3748L10.3891 19.6252ZM2 2.54H5.848V0.539999H2V2.54ZM4.9089 1.88365L10.1609 16.2357L12.0391 15.5483L6.7871 1.19634L4.9089 1.88365ZM12.0324 16.2535L14.3204 10.3515L12.4556 9.62854L10.1676 15.5305L12.0324 16.2535ZM14.3263 9.64429L11.2323 1.24629L9.35566 1.93771L12.4497 10.3357L14.3263 9.64429ZM33.4153 19.714L33.0192 20.6322L33.0269 20.6355L33.0346 20.6387L33.4153 19.714ZM31.1533 18.18L30.4366 18.8774L31.1533 18.18ZM29.6973 15.944L28.765 16.3055L28.7681 16.3137L28.7715 16.3219L29.6973 15.944ZM29.6973 10.536L30.6297 10.8975L30.6321 10.8912L29.6973 10.536ZM31.1273 8.274L31.8441 8.97142L31.8533 8.96174L31.1273 8.274ZM33.3893 6.714L32.9997 5.79301L32.9932 5.79579L33.3893 6.714ZM39.3693 6.714L38.9666 7.62934L38.9732 7.63221L39.3693 6.714ZM41.6053 8.248L40.8788 8.93527L40.8886 8.94535L41.6053 8.248ZM43.0093 10.484L42.0706 10.8288L42.0737 10.8372L42.077 10.8455L43.0093 10.484ZM43.4773 13.786L42.4808 13.703L42.4773 13.7444V13.786H43.4773ZM43.4253 14.306V15.306H44.2061L44.3955 14.5485L43.4253 14.306ZM32.8953 14.306V13.306H31.7939L31.9 14.4023L32.8953 14.306ZM33.2853 15.736L32.3909 16.1832L33.2853 15.736ZM34.0913 16.802L33.4245 17.5472L34.0913 16.802ZM35.2093 17.478L34.8582 18.4143L35.2093 17.478ZM38.4593 17.218L38.9364 18.0969L38.945 18.0922L38.4593 17.218ZM39.7333 15.866L40.0014 14.9026L39.1424 14.6636L38.8068 15.4896L39.7333 15.866ZM42.7233 16.698L43.6237 17.1332L44.1445 16.0555L42.9914 15.7346L42.7233 16.698ZM40.3053 19.272L40.8218 20.1283L40.8257 20.1259L40.3053 19.272ZM39.9153 12.044V13.044H41.0036L40.9117 11.9596L39.9153 12.044ZM38.7713 9.6L38.0836 10.326L38.0934 10.3352L38.1034 10.3442L38.7713 9.6ZM35.0273 8.924L35.3917 9.85524L35.4019 9.85127L35.4119 9.84708L35.0273 8.924ZM33.9613 9.6L34.6479 10.327L33.9613 9.6ZM33.1813 10.666L32.2869 10.2188L32.2793 10.2339L32.2722 10.2493L33.1813 10.666ZM32.8433 12.044L31.8457 11.9752L31.772 13.044H32.8433V12.044ZM36.3793 19.26C35.3995 19.26 34.5433 19.097 33.7961 18.7893L33.0346 20.6387C34.0553 21.059 35.1751 21.26 36.3793 21.26V19.26ZM33.8114 18.7958C33.0385 18.4624 32.3959 18.0231 31.87 17.4826L30.4366 18.8774C31.1587 19.6195 32.0241 20.203 33.0192 20.6322L33.8114 18.7958ZM31.87 17.4826C31.3379 16.9357 30.9225 16.2996 30.6232 15.5661L28.7715 16.3219C29.1654 17.2871 29.7207 18.1416 30.4366 18.8774L31.87 17.4826ZM30.6297 15.5825C30.3463 14.8516 30.2033 14.0818 30.2033 13.266H28.2033C28.2033 14.3222 28.3897 15.3377 28.765 16.3055L30.6297 15.5825ZM30.2033 13.266C30.2033 12.4108 30.3479 11.6242 30.6297 10.8975L28.765 10.1745C28.388 11.1465 28.2033 12.1799 28.2033 13.266H30.2033ZM30.6321 10.8912C30.9147 10.1476 31.3188 9.51118 31.844 8.97135L30.4106 7.57664C29.6878 8.31948 29.1386 9.19109 28.7625 10.1808L30.6321 10.8912ZM31.8533 8.96174C32.3785 8.40738 33.0181 7.9632 33.7854 7.63221L32.9932 5.79579C31.9925 6.22747 31.1242 6.82328 30.4014 7.58625L31.8533 8.96174ZM33.779 7.63497C34.5416 7.31231 35.412 7.142 36.4053 7.142V5.142C35.1799 5.142 34.0397 5.35302 32.9997 5.79303L33.779 7.63497ZM36.4053 7.142C37.3995 7.142 38.2467 7.31258 38.9666 7.62931L39.7721 5.79868C38.7586 5.35275 37.6298 5.142 36.4053 5.142V7.142ZM38.9732 7.63221C39.7439 7.96468 40.3736 8.40112 40.8788 8.9352L42.3318 7.5608C41.6237 6.81221 40.7627 6.22599 39.7654 5.79579L38.9732 7.63221ZM40.8886 8.94535C41.4136 9.4849 41.8065 10.1098 42.0706 10.8288L43.948 10.1392C43.5881 9.15958 43.0451 8.29376 42.322 7.55064L40.8886 8.94535ZM42.077 10.8455C42.3612 11.5786 42.5033 12.3399 42.5033 13.136H44.5033C44.5033 12.0948 44.3161 11.0881 43.9417 10.1225L42.077 10.8455ZM42.5033 13.136C42.5033 13.3358 42.4956 13.5247 42.4808 13.703L44.4739 13.869C44.4937 13.6313 44.5033 13.3869 44.5033 13.136H42.5033ZM42.4773 13.786C42.4773 13.9457 42.4633 14.0311 42.4552 14.0635L44.3955 14.5485C44.4567 14.3036 44.4773 14.0423 44.4773 13.786H42.4773ZM43.4253 13.306H32.8953V15.306H43.4253V13.306ZM31.9 14.4023C31.9619 15.0425 32.1199 15.6413 32.3909 16.1832L34.1797 15.2888C34.0347 14.9987 33.9327 14.6442 33.8907 14.2097L31.9 14.4023ZM32.3909 16.1832C32.6523 16.706 32.9963 17.1641 33.4245 17.5472L34.7581 16.0568C34.5276 15.8506 34.3343 15.598 34.1797 15.2888L32.3909 16.1832ZM33.4245 17.5472C33.8468 17.9251 34.3267 18.215 34.8582 18.4143L35.5604 16.5417C35.26 16.429 34.9945 16.2682 34.7581 16.0568L33.4245 17.5472ZM34.8582 18.4143C35.3881 18.613 35.9405 18.712 36.5093 18.712V16.712C36.1768 16.712 35.8625 16.655 35.5604 16.5417L34.8582 18.4143ZM36.5093 18.712C37.3685 18.712 38.1826 18.5061 38.9364 18.0969L37.9822 16.3391C37.5227 16.5886 37.0368 16.712 36.5093 16.712V18.712ZM38.945 18.0922C39.7285 17.6569 40.3329 17.0471 40.6598 16.2424L38.8068 15.4896C38.6831 15.7942 38.4381 16.0858 37.9737 16.3438L38.945 18.0922ZM39.4652 16.8294L42.4552 17.6614L42.9914 15.7346L40.0014 14.9026L39.4652 16.8294ZM41.823 16.2628C41.4142 17.1086 40.7511 17.8293 39.7849 18.4181L40.8257 20.1259C42.0782 19.3627 43.0271 18.3674 43.6237 17.1332L41.823 16.2628ZM39.7888 18.4157C38.8808 18.9634 37.7585 19.26 36.3793 19.26V21.26C38.0508 21.26 39.5458 20.8979 40.8218 20.1283L39.7888 18.4157ZM40.9117 11.9596C40.8066 10.7188 40.3298 9.65496 39.4392 8.85576L38.1034 10.3442C38.5649 10.7584 38.8507 11.3239 38.9189 12.1284L40.9117 11.9596ZM39.4591 8.87405C38.6045 8.06447 37.5482 7.664 36.3533 7.664V9.664C37.0651 9.664 37.6208 9.88753 38.0836 10.326L39.4591 8.87405ZM36.3533 7.664C35.7585 7.664 35.1853 7.77485 34.6427 8.00092L35.4119 9.84708C35.7014 9.72648 36.0122 9.664 36.3533 9.664V7.664ZM34.6629 7.99276C34.1444 8.19564 33.6798 8.49042 33.2747 8.87299L34.6479 10.327C34.8669 10.1202 35.1129 9.96436 35.3917 9.85524L34.6629 7.99276ZM33.2747 8.87299C32.8707 9.25452 32.5428 9.70686 32.2869 10.2188L34.0757 11.1132C34.2358 10.7931 34.4279 10.5348 34.6479 10.327L33.2747 8.87299ZM32.2722 10.2493C32.0265 10.7856 31.8878 11.3643 31.8457 11.9752L33.8409 12.1128C33.8681 11.7183 33.9548 11.3784 34.0904 11.0827L32.2722 10.2493ZM32.8433 13.044H39.9153V11.044H32.8433V13.044ZM51.3718 19.558L50.8736 20.4251L51.3718 19.558ZM49.4478 17.634L50.3149 17.1359L48.4478 13.8857V17.634H49.4478ZM49.4478 20V21H50.4478V20H49.4478ZM46.4058 20H45.4058V21H46.4058V20ZM46.4058 1.02V0.0199995H45.4058V1.02H46.4058ZM49.8898 1.02H50.8898V0.0199995H49.8898V1.02ZM49.8898 8.768H48.8898V12.4669L50.7535 9.27187L49.8898 8.768ZM51.7878 6.844L52.2881 7.70988L52.294 7.70641L51.7878 6.844ZM56.9878 6.714L56.5238 7.59983L56.9878 6.714ZM58.8598 8.248L58.083 8.8778L58.0881 8.88405L58.0932 8.89022L58.8598 8.248ZM60.0818 10.51L59.1293 10.8148L59.1321 10.8234L59.135 10.8319L60.0818 10.51ZM60.0298 15.996L59.0974 15.6345L59.0942 15.6428L59.0911 15.6512L60.0298 15.996ZM58.7038 18.232L59.441 18.9078L59.4501 18.8976L58.7038 18.232ZM56.6758 19.714L56.2529 18.8078L56.6758 19.714ZM54.7258 16.984L55.1319 17.8978L55.1458 17.8916L55.1596 17.885L54.7258 16.984ZM56.6758 14.826L55.745 14.4603L55.7393 14.4749L55.734 14.4897L56.6758 14.826ZM56.7018 11.68L57.6471 11.354L56.7018 11.68ZM55.9478 10.354L55.1738 10.9872L55.1822 10.9975L55.1909 11.0076L55.9478 10.354ZM51.2938 9.886L51.9318 10.656L51.934 10.6542L51.2938 9.886ZM49.8898 11.758L48.9751 11.3538L48.8898 11.5469V11.758H49.8898ZM49.8898 15.008H48.8898V15.1779L48.9459 15.3384L49.8898 15.008ZM50.4098 15.944L49.6337 16.5746L49.6452 16.5888L49.6572 16.6025L50.4098 15.944ZM51.2158 16.672L50.6391 17.489L50.6556 17.5006L50.6725 17.5116L51.2158 16.672ZM52.1778 17.14L51.8474 18.0839L51.8688 18.0913L51.8904 18.0978L52.1778 17.14ZM54.1538 19.26C53.2694 19.26 52.5172 19.0627 51.8699 18.6909L50.8736 20.4251C51.8557 20.9893 52.9581 21.26 54.1538 21.26V19.26ZM51.8699 18.6909C51.2087 18.3111 50.6947 17.7971 50.3149 17.1359L48.5807 18.1321C49.1368 19.1003 49.9055 19.8689 50.8736 20.4251L51.8699 18.6909ZM48.4478 17.634V20H50.4478V17.634H48.4478ZM49.4478 19H46.4058V21H49.4478V19ZM47.4058 20V1.02H45.4058V20H47.4058ZM46.4058 2.02H49.8898V0.0199995H46.4058V2.02ZM48.8898 1.02V8.768H50.8898V1.02H48.8898ZM50.7535 9.27187C51.1575 8.57933 51.6691 8.0675 52.288 7.70986L51.2875 5.97813C50.3465 6.52183 49.5927 7.29267 49.026 8.26413L50.7535 9.27187ZM52.294 7.70641C52.9168 7.34081 53.6644 7.142 54.5698 7.142V5.142C53.3605 5.142 52.2534 5.41119 51.2816 5.98158L52.294 7.70641ZM54.5698 7.142C55.3047 7.142 55.9496 7.2991 56.5238 7.59983L57.4518 5.82817C56.5699 5.36623 55.6029 5.142 54.5698 5.142V7.142ZM56.5238 7.59983C57.1306 7.9177 57.6483 8.3417 58.083 8.8778L59.6365 7.6182C59.0312 6.87163 58.3009 6.27297 57.4518 5.82817L56.5238 7.59983ZM58.0932 8.89022C58.5403 9.42379 58.888 10.0607 59.1293 10.8148L61.0342 10.2052C60.7208 9.22597 60.2539 8.35488 59.6263 7.60578L58.0932 8.89022ZM59.135 10.8319C59.393 11.5907 59.5238 12.3916 59.5238 13.24H61.5238C61.5238 12.1818 61.3599 11.1627 61.0285 10.1881L59.135 10.8319ZM59.5238 13.24C59.5238 14.1149 59.3784 14.9098 59.0974 15.6345L60.9621 16.3575C61.3398 15.3835 61.5238 14.3411 61.5238 13.24H59.5238ZM59.0911 15.6512C58.8201 16.3888 58.4414 17.0238 57.9575 17.5664L59.4501 18.8976C60.1102 18.1575 60.6154 17.3019 60.9684 16.3408L59.0911 15.6512ZM57.9666 17.5563C57.4848 18.0819 56.9161 18.4983 56.2529 18.8078L57.0987 20.6202C57.9955 20.2017 58.7788 19.6301 59.4409 18.9077L57.9666 17.5563ZM56.2529 18.8078C55.6115 19.1071 54.916 19.26 54.1538 19.26V21.26C55.1942 21.26 56.18 21.0489 57.0987 20.6202L56.2529 18.8078ZM53.1918 18.296C53.8746 18.296 54.5257 18.1672 55.1319 17.8978L54.3196 16.0702C53.9898 16.2168 53.6183 16.296 53.1918 16.296V18.296ZM55.1596 17.885C55.7372 17.6069 56.2423 17.2363 56.6633 16.7709L55.1802 15.4291C54.9426 15.6917 54.6503 15.9104 54.292 16.083L55.1596 17.885ZM56.6633 16.7709C57.085 16.3048 57.4023 15.765 57.6175 15.1623L55.734 14.4897C55.6026 14.8577 55.4172 15.1672 55.1802 15.4291L56.6633 16.7709ZM57.6065 15.1917C57.8458 14.5826 57.9618 13.9378 57.9618 13.266H55.9618C55.9618 13.7036 55.8871 14.0988 55.745 14.4603L57.6065 15.1917ZM57.9618 13.266C57.9618 12.6052 57.8582 11.966 57.6471 11.354L55.7564 12.006C55.892 12.3993 55.9618 12.8174 55.9618 13.266H57.9618ZM57.6471 11.354C57.4347 10.7379 57.1216 10.1832 56.7046 9.70038L55.1909 11.0076C55.4326 11.2875 55.6222 11.6168 55.7564 12.006L57.6471 11.354ZM56.7217 9.72076C56.3246 9.23539 55.8459 8.84526 55.2911 8.55678L54.3684 10.3312C54.6803 10.4934 54.9469 10.7099 55.1738 10.9872L56.7217 9.72076ZM55.2911 8.55678C54.7061 8.25258 54.0697 8.106 53.3998 8.106V10.106C53.7698 10.106 54.0868 10.1848 54.3684 10.3312L55.2911 8.55678ZM53.3998 8.106C52.3755 8.106 51.4492 8.45474 50.6536 9.11778L51.934 10.6542C52.3863 10.2773 52.864 10.106 53.3998 10.106V8.106ZM50.6558 9.11598C49.9256 9.72095 49.3648 10.4718 48.9751 11.3538L50.8045 12.1622C51.0734 11.5536 51.4486 11.0564 51.9318 10.656L50.6558 9.11598ZM48.8898 11.758V15.008H50.8898V11.758H48.8898ZM48.9459 15.3384C49.1043 15.791 49.3335 16.2051 49.6337 16.5746L51.1859 15.3134C51.0354 15.1282 50.9179 14.9184 50.8336 14.6777L48.9459 15.3384ZM49.6572 16.6025C49.9509 16.9381 50.2783 17.2343 50.6391 17.489L51.7924 15.855C51.5639 15.6937 51.354 15.5045 51.1623 15.2855L49.6572 16.6025ZM50.6725 17.5116C51.0368 17.7473 51.4294 17.9375 51.8474 18.0839L52.5081 16.1961C52.2328 16.0998 51.9841 15.9781 51.759 15.8324L50.6725 17.5116ZM51.8904 18.0978C52.3212 18.227 52.756 18.296 53.1918 18.296V16.296C52.9689 16.296 52.7277 16.261 52.4651 16.1822L51.8904 18.0978ZM82.0264 6.376L81.3193 7.08311L82.2649 8.02875L82.9046 6.8543L82.0264 6.376ZM81.3504 5.882L80.7957 6.71405L80.8059 6.7209L80.8164 6.72749L81.3504 5.882ZM80.1804 5.284L79.7613 6.19196L79.782 6.2015L79.8031 6.21009L80.1804 5.284ZM74.8504 5.102L75.4504 5.902V5.902L74.8504 5.102ZM74.3824 7.598L73.5503 8.1527L73.572 8.18515L73.5961 8.21582L74.3824 7.598ZM76.4884 8.768L76.201 9.72586L76.2096 9.72835L76.4884 8.768ZM78.3344 9.262L78.5944 8.29638L78.5857 8.29404L78.5769 8.29186L78.3344 9.262ZM80.7784 10.042L80.4224 10.9765L80.4296 10.9792L80.7784 10.042ZM82.6504 11.082L82.0128 11.8524L82.0192 11.8577L82.0257 11.8629L82.6504 11.082ZM83.8464 12.59L82.9415 13.0158L82.9466 13.0263L83.8464 12.59ZM83.6904 17.27L82.8092 16.7972L82.805 16.8052L83.6904 17.27ZM82.1824 18.96L81.6225 18.1313L81.612 18.1386L82.1824 18.96ZM79.9984 19.922L80.2263 20.8957L80.2336 20.894L80.2409 20.8921L79.9984 19.922ZM73.3164 19.584L73.0223 20.5398L73.3164 19.584ZM69.6764 17.816L68.7865 17.3598L68.3915 18.1304L69.0976 18.6315L69.6764 17.816ZM71.2624 14.722L71.9695 14.0149L70.9987 13.0441L70.3725 14.2658L71.2624 14.722ZM72.0944 15.346L71.5481 16.1836L71.569 16.1972L71.5905 16.2098L72.0944 15.346ZM73.5504 16.1L73.1259 17.0055L73.1377 17.011L73.1496 17.0162L73.5504 16.1ZM75.3964 16.724L75.148 17.6927L75.3964 16.724ZM80.1024 14.072L79.3263 14.7026V14.7026L80.1024 14.072ZM79.1404 13.344L78.6932 14.2384L79.1404 13.344ZM77.6324 12.772L77.9145 11.8126L77.6324 12.772ZM75.6564 12.2L75.9311 11.2384L75.9211 11.2357L75.6564 12.2ZM73.3424 11.42L72.9249 12.3287L72.9395 12.3354L72.9543 12.3416L73.3424 11.42ZM71.7304 10.406L71.0533 11.1419L71.0615 11.1494L71.0697 11.1567L71.7304 10.406ZM70.7424 9.054L69.8139 9.42539L69.8215 9.44439L69.8299 9.46305L70.7424 9.054ZM70.9504 4.712L71.8532 5.14193L70.9504 4.712ZM72.3804 2.892L71.7664 2.10257L71.7557 2.11113L72.3804 2.892ZM74.5384 1.8L74.8239 2.75838L74.8332 2.75561L74.8424 2.75266L74.5384 1.8ZM80.7524 2.034L80.3963 2.96858L80.4094 2.97336L80.7524 2.034ZM83.6124 3.464L84.4906 3.9423L84.9237 3.14704L84.1752 2.6374L83.6124 3.464ZM82.7335 5.66889C82.5267 5.46208 82.2178 5.24707 81.8844 5.03651L80.8164 6.72749C81.1417 6.93293 81.2834 7.04725 81.3193 7.08311L82.7335 5.66889ZM81.9051 5.04995C81.5218 4.79445 81.0679 4.56578 80.5577 4.35791L79.8031 6.21009C80.2289 6.38356 80.5549 6.55355 80.7957 6.71405L81.9051 5.04995ZM80.5994 4.37604C80.0884 4.14016 79.537 3.94765 78.9483 3.79572L78.4485 5.73228C78.9344 5.85768 79.3711 6.01184 79.7613 6.19196L80.5994 4.37604ZM78.9483 3.79572C78.3293 3.636 77.6994 3.556 77.0604 3.556V5.556C77.5307 5.556 77.9928 5.61466 78.4485 5.73228L78.9483 3.79572ZM77.0604 3.556C75.981 3.556 74.9875 3.74917 74.2504 4.302L75.4504 5.902C75.6839 5.72683 76.1637 5.556 77.0604 5.556V3.556ZM74.2504 4.302C73.4892 4.87285 73.1224 5.69383 73.1224 6.636H75.1224C75.1224 6.26084 75.2408 6.05915 75.4504 5.902L74.2504 4.302ZM73.1224 6.636C73.1224 7.17084 73.2454 7.69535 73.5503 8.1527L75.2144 7.0433C75.1727 6.98065 75.1224 6.86382 75.1224 6.636H73.1224ZM73.5961 8.21582C73.8896 8.58947 74.2738 8.88628 74.7065 9.12422L75.6703 7.37178C75.4096 7.22838 75.2564 7.09186 75.1687 6.98018L73.5961 8.21582ZM74.7065 9.12422C75.1329 9.35878 75.6365 9.55647 76.201 9.72583L76.7757 7.81017C76.3002 7.66752 75.9371 7.51855 75.6703 7.37178L74.7065 9.12422ZM76.2096 9.72835C76.7617 9.88864 77.3895 10.0566 78.0918 10.2321L78.5769 8.29186C77.8926 8.12078 77.2897 7.95936 76.7672 7.80765L76.2096 9.72835ZM78.0744 10.2276C78.9494 10.4632 79.7313 10.7132 80.4224 10.9765L81.1344 9.10751C80.3695 8.81612 79.5221 8.54615 78.5944 8.29638L78.0744 10.2276ZM80.4296 10.9792C81.0922 11.2258 81.6129 11.5215 82.0128 11.8524L83.2879 10.3116C82.6825 9.81055 81.9552 9.4129 81.1271 9.10478L80.4296 10.9792ZM82.0257 11.8629C82.4292 12.1857 82.7308 12.5678 82.9416 13.0158L84.7512 12.1642C84.4073 11.4335 83.9116 10.8103 83.2751 10.3011L82.0257 11.8629ZM82.9466 13.0263C83.1397 13.4246 83.2624 13.9754 83.2624 14.722H85.2624C85.2624 13.77 85.1077 12.8994 84.7462 12.1537L82.9466 13.0263ZM83.2624 14.722C83.2624 15.5817 83.0969 16.2611 82.8092 16.7972L84.5715 17.7428C85.0466 16.8575 85.2624 15.8383 85.2624 14.722H83.2624ZM82.805 16.8052C82.5168 17.354 82.1253 17.7917 81.6225 18.1314L82.7422 19.7886C83.5221 19.2616 84.1359 18.5727 84.5758 17.7348L82.805 16.8052ZM81.612 18.1386C81.0993 18.4946 80.4855 18.7695 79.7558 18.9519L80.2409 20.8921C81.1753 20.6585 82.0174 20.292 82.7528 19.7814L81.612 18.1386ZM79.7705 18.9483C79.036 19.1202 78.2549 19.208 77.4244 19.208V21.208C78.3966 21.208 79.3314 21.1051 80.2263 20.8957L79.7705 18.9483ZM77.4244 19.208C76.1394 19.208 74.8691 19.0155 73.6105 18.6282L73.0223 20.5398C74.4676 20.9845 75.936 21.208 77.4244 21.208V19.208ZM73.6105 18.6282C72.3527 18.2412 71.2368 17.6972 70.2551 17.0005L69.0976 18.6315C70.2653 19.4602 71.576 20.0948 73.0223 20.5398L73.6105 18.6282ZM70.5663 18.2722L72.1523 15.1782L70.3725 14.2658L68.7865 17.3598L70.5663 18.2722ZM70.5553 15.4291C70.7897 15.6636 71.1421 15.9188 71.5481 16.1836L72.6406 14.5084C72.2493 14.2532 72.047 14.0924 71.9695 14.0149L70.5553 15.4291ZM71.5905 16.2098C72.0382 16.4709 72.5511 16.736 73.1259 17.0055L73.9748 15.1945C73.4404 14.944 72.9826 14.7064 72.5983 14.4822L71.5905 16.2098ZM73.1496 17.0162C73.7603 17.2834 74.4276 17.5079 75.148 17.6927L75.6448 15.7553C75.0132 15.5934 74.4498 15.402 73.9512 15.1838L73.1496 17.0162ZM75.148 17.6927C75.9066 17.8872 76.6835 17.984 77.4764 17.984V15.984C76.8479 15.984 76.2381 15.9075 75.6448 15.7553L75.148 17.6927ZM77.4764 17.984C78.539 17.984 79.5077 17.8197 80.2386 17.3516C81.0457 16.8349 81.4404 16.0276 81.4404 15.086H79.4404C79.4404 15.4098 79.3411 15.5515 79.1601 15.6674C78.9031 15.832 78.3898 15.984 77.4764 15.984V17.984ZM81.4404 15.086C81.4404 14.4859 81.2655 13.9177 80.8785 13.4414L79.3263 14.7026C79.3899 14.7809 79.4404 14.8888 79.4404 15.086H81.4404ZM80.8785 13.4414C80.5408 13.0258 80.094 12.7028 79.5876 12.4496L78.6932 14.2384C79.0187 14.4012 79.2133 14.5635 79.3263 14.7026L80.8785 13.4414ZM79.5876 12.4496C79.1049 12.2082 78.5438 11.9977 77.9145 11.8126L77.3502 13.7314C77.8996 13.893 78.3439 14.0638 78.6932 14.2384L79.5876 12.4496ZM77.9145 11.8126C77.3222 11.6384 76.661 11.447 75.9311 11.2385L75.3817 13.1615C76.1077 13.369 76.7638 13.5589 77.3502 13.7314L77.9145 11.8126ZM75.9211 11.2357C75.068 11.0015 74.3396 10.7549 73.7304 10.4984L72.9543 12.3416C73.6625 12.6398 74.4767 12.9132 75.3917 13.1643L75.9211 11.2357ZM73.7599 10.5113C73.188 10.2485 72.7373 9.96002 72.391 9.65529L71.0697 11.1567C71.5901 11.6146 72.2141 12.0021 72.9249 12.3287L73.7599 10.5113ZM72.4074 9.67007C72.067 9.35684 71.821 9.01544 71.6549 8.64494L69.8299 9.46305C70.1144 10.0979 70.5271 10.6578 71.0533 11.1419L72.4074 9.67007ZM71.6709 8.68261C71.5209 8.30779 71.4304 7.82427 71.4304 7.208H69.4304C69.4304 8.01306 69.5478 8.76021 69.8139 9.42539L71.6709 8.68261ZM71.4304 7.208C71.4304 6.39691 71.58 5.71565 71.8532 5.14193L70.0475 4.28207C69.6274 5.16435 69.4304 6.14709 69.4304 7.208H71.4304ZM71.8532 5.14193C72.1374 4.54511 72.521 4.06014 73.0051 3.67287L71.7557 2.11113C71.0264 2.69452 70.4566 3.42288 70.0475 4.28207L71.8532 5.14193ZM72.9943 3.68135C73.5131 3.27785 74.1192 2.96828 74.8239 2.75838L74.2529 0.841613C73.3282 1.11705 72.4956 1.53548 71.7664 2.10265L72.9943 3.68135ZM74.8424 2.75266C75.55 2.52685 76.3219 2.41 77.1644 2.41V0.409999C76.1349 0.409999 75.1561 0.55315 74.2343 0.84734L74.8424 2.75266ZM77.1644 2.41C78.3564 2.41 79.4302 2.6004 80.3964 2.96849L81.1084 1.09951C79.8906 0.635597 78.5724 0.409999 77.1644 0.409999V2.41ZM80.4094 2.97336C81.4372 3.34859 82.3142 3.7899 83.0496 4.2906L84.1752 2.6374C83.2812 2.02877 82.2515 1.51674 81.0953 1.09464L80.4094 2.97336ZM82.7342 2.9857L81.1482 5.8977L82.9046 6.8543L84.4906 3.9423L82.7342 2.9857ZM95.4273 19.298L95.8335 20.2118L96.6047 19.869L96.3964 19.0512L95.4273 19.298ZM90.2013 20.052L89.9213 21.0121L89.9317 21.015L90.2013 20.052ZM89.0833 19.48L88.419 20.2274L88.4408 20.2468L88.4637 20.2649L89.0833 19.48ZM88.3293 18.44L87.414 18.8427L87.4171 18.8497L87.4203 18.8567L88.3293 18.44ZM88.0433 9.054H89.0433V8.054H88.0433V9.054ZM86.2493 9.054H85.2493V10.054H86.2493V9.054ZM86.2493 6.376V5.376H85.2493V6.376H86.2493ZM88.0433 6.376V7.376H89.0433V6.376H88.0433ZM88.0433 1.956V0.956H87.0433V1.956H88.0433ZM91.5273 1.956H92.5273V0.956H91.5273V1.956ZM91.5273 6.376H90.5273V7.376H91.5273V6.376ZM94.3873 6.376H95.3873V5.376H94.3873V6.376ZM94.3873 9.054V10.054H95.3873V9.054H94.3873ZM91.5273 9.054V8.054H90.5273V9.054H91.5273ZM91.8913 16.75L91.2406 17.5093L91.2694 17.534L91.3 17.5564L91.8913 16.75ZM93.8933 16.854L93.563 15.9101L93.8933 16.854ZM94.7253 16.542L95.6944 16.2952L95.4088 15.1739L94.3407 15.6189L94.7253 16.542ZM95.0212 18.3842C94.6005 18.5712 94.0683 18.7659 93.4173 18.9662L94.0054 20.8778C94.7064 20.6621 95.3182 20.4408 95.8335 20.2118L95.0212 18.3842ZM93.4173 18.9662C92.8415 19.1434 92.2304 19.234 91.5793 19.234V21.234C92.419 21.234 93.2291 21.1166 94.0054 20.8778L93.4173 18.9662ZM91.5793 19.234C91.178 19.234 90.8099 19.1839 90.471 19.089L89.9317 21.015C90.4594 21.1627 91.01 21.234 91.5793 21.234V19.234ZM90.4813 19.092C90.1846 19.0055 89.9281 18.8728 89.703 18.6951L88.4637 20.2649C88.8973 20.6072 89.386 20.8559 89.9213 21.012L90.4813 19.092ZM89.7477 18.7326C89.5489 18.5559 89.3769 18.3256 89.2384 18.0233L87.4203 18.8567C87.6631 19.3864 87.9938 19.8494 88.419 20.2274L89.7477 18.7326ZM89.2447 18.0373C89.1232 17.7612 89.0433 17.3855 89.0433 16.88H87.0433C87.0433 17.5878 87.1542 18.2521 87.414 18.8427L89.2447 18.0373ZM89.0433 16.88V9.054H87.0433V16.88H89.0433ZM88.0433 8.054H86.2493V10.054H88.0433V8.054ZM87.2493 9.054V6.376H85.2493V9.054H87.2493ZM86.2493 7.376H88.0433V5.376H86.2493V7.376ZM89.0433 6.376V1.956H87.0433V6.376H89.0433ZM88.0433 2.956H91.5273V0.956H88.0433V2.956ZM90.5273 1.956V6.376H92.5273V1.956H90.5273ZM91.5273 7.376H94.3873V5.376H91.5273V7.376ZM93.3873 6.376V9.054H95.3873V6.376H93.3873ZM94.3873 8.054H91.5273V10.054H94.3873V8.054ZM90.5273 9.054V15.71H92.5273V9.054H90.5273ZM90.5273 15.71C90.5273 16.3347 90.682 17.0305 91.2406 17.5093L92.5421 15.9907C92.5735 16.0176 92.5735 16.0359 92.5622 16.0036C92.5485 15.9644 92.5273 15.8742 92.5273 15.71H90.5273ZM91.3 17.5564C91.7533 17.8888 92.2793 18.036 92.8273 18.036V16.036C92.6474 16.036 92.5494 15.9925 92.4827 15.9436L91.3 17.5564ZM92.8273 18.036C93.3049 18.036 93.7718 17.956 94.2237 17.7979L93.563 15.9101C93.3215 15.9947 93.0778 16.036 92.8273 16.036V18.036ZM94.2237 17.7979C94.5788 17.6736 94.8765 17.5623 95.11 17.4651L94.3407 15.6189C94.1582 15.695 93.9012 15.7918 93.563 15.9101L94.2237 17.7979ZM93.7563 16.7888L94.4583 19.5448L96.3964 19.0512L95.6944 16.2952L93.7563 16.7888ZM98.9839 18.908L99.7618 18.2797L98.9839 18.908ZM97.8919 6.376V5.376H96.8919V6.376H97.8919ZM101.376 6.376H102.376V5.376H101.376V6.376ZM105.588 16.698L106.126 17.5407L106.132 17.537L105.588 16.698ZM107.148 14.826L108.05 15.2581L108.148 15.0532V14.826H107.148ZM107.148 6.376V5.376H106.148V6.376H107.148ZM110.632 6.376H111.632V5.376H110.632V6.376ZM110.814 16.776L110.025 17.3899L110.045 17.4158L110.066 17.4404L110.814 16.776ZM111.464 17.036H112.464V16.0931L111.523 16.0377L111.464 17.036ZM111.464 20L111.66 20.9806L112.464 20.8198V20H111.464ZM110.58 20.13L110.509 19.1325L110.503 19.1329L110.58 20.13ZM108.422 19.74L107.81 20.5313L107.83 20.5466L107.851 20.5609L108.422 19.74ZM107.746 18.544L106.748 18.6152L106.751 18.6481L106.755 18.6806L107.746 18.544ZM107.668 17.452L108.665 17.3808L108.453 14.4027L106.829 16.9081L107.668 17.452ZM105.328 19.558L105.769 20.4557L105.328 19.558ZM102.182 19.26C101.009 19.26 100.26 18.8959 99.7618 18.2797L98.2059 19.5363C99.1642 20.7227 100.546 21.26 102.182 21.26V19.26ZM99.7618 18.2797C99.2359 17.6286 98.8919 16.5579 98.8919 14.904H96.8919C96.8919 16.7861 97.2758 18.3848 98.2059 19.5363L99.7618 18.2797ZM98.8919 14.904V6.376H96.8919V14.904H98.8919ZM97.8919 7.376H101.376V5.376H97.8919V7.376ZM100.376 6.376V14.15H102.376V6.376H100.376ZM100.376 14.15C100.376 15.2885 100.575 16.3223 101.129 17.0933C101.728 17.9252 102.624 18.296 103.638 18.296V16.296C103.144 16.296 102.909 16.1424 102.753 15.9257C102.554 15.648 102.376 15.1089 102.376 14.15H100.376ZM103.638 18.296C104.523 18.296 105.357 18.0319 106.126 17.5407L105.049 15.8553C104.57 16.1614 104.105 16.296 103.638 16.296V18.296ZM106.132 17.537C106.957 17.0019 107.588 16.2216 108.05 15.2581L106.246 14.3939C105.91 15.0944 105.501 15.5621 105.044 15.859L106.132 17.537ZM108.148 14.826V6.376H106.148V14.826H108.148ZM107.148 7.376H110.632V5.376H107.148V7.376ZM109.632 6.376V15.996H111.632V6.376H109.632ZM109.632 15.996C109.632 16.4188 109.692 16.9625 110.025 17.3899L111.603 16.1621C111.657 16.2307 111.66 16.2728 111.651 16.2368C111.643 16.2026 111.632 16.1271 111.632 15.996H109.632ZM110.066 17.4404C110.443 17.8645 110.957 18.0079 111.405 18.0343L111.523 16.0377C111.455 16.0338 111.438 16.024 111.452 16.0295C111.46 16.0327 111.476 16.0401 111.496 16.0542C111.517 16.0686 111.54 16.0877 111.561 16.1116L110.066 17.4404ZM110.464 17.036V20H112.464V17.036H110.464ZM111.268 19.0194C110.946 19.0838 110.695 19.1192 110.509 19.1325L110.651 21.1275C110.95 21.1061 111.289 21.0548 111.66 20.9806L111.268 19.0194ZM110.503 19.1329C110.299 19.1487 110.117 19.156 109.956 19.156V21.156C110.176 21.156 110.41 21.146 110.657 21.1271L110.503 19.1329ZM109.956 19.156C109.478 19.156 109.182 19.0506 108.993 18.9191L107.851 20.5609C108.459 20.9841 109.186 21.156 109.956 21.156V19.156ZM109.033 18.9487C108.871 18.8233 108.772 18.6658 108.736 18.4074L106.755 18.6806C106.858 19.4275 107.21 20.0673 107.81 20.5313L109.033 18.9487ZM108.743 18.4728L108.665 17.3808L106.67 17.5232L106.748 18.6152L108.743 18.4728ZM106.829 16.9081C106.315 17.7003 105.67 18.2761 104.887 18.6603L105.769 20.4557C106.893 19.9039 107.807 19.0757 108.507 17.9959L106.829 16.9081ZM104.887 18.6603C104.081 19.0559 103.185 19.26 102.182 19.26V21.26C103.467 21.26 104.668 20.9961 105.769 20.4557L104.887 18.6603ZM117.916 19.714L118.331 18.8043L117.916 19.714ZM115.862 18.206L116.608 17.5404L115.862 18.206ZM114.51 15.97L113.569 16.3087L113.573 16.3202L113.578 16.3315L114.51 15.97ZM114.484 10.432L113.545 10.0872L113.542 10.0957L113.539 10.1042L114.484 10.432ZM115.758 8.196L116.525 8.83822V8.83822L115.758 8.196ZM117.682 6.688L118.121 7.58657H118.121L117.682 6.688ZM122.83 6.87L122.31 7.72424L122.318 7.7291L122.83 6.87ZM124.728 8.768L123.862 9.26828L125.728 12.4977V8.768H124.728ZM124.728 1.02V0.0199995H123.728V1.02H124.728ZM128.212 1.02H129.212V0.0199995H128.212V1.02ZM128.394 16.776L129.183 16.1621V16.1621L128.394 16.776ZM129.018 17.036H130.018V16.0931L129.077 16.0377L129.018 17.036ZM129.018 20L129.214 20.9806L130.018 20.8198V20H129.018ZM126.002 19.714L126.618 18.9265L126.002 19.714ZM125.326 18.492L124.33 18.5825L124.331 18.5949L125.326 18.492ZM125.248 17.634L126.244 17.5435L125.96 14.4143L124.383 17.1323L125.248 17.634ZM123.194 19.61L123.649 20.5008L123.655 20.4972L123.194 19.61ZM122.44 17.14L122.727 18.0978L122.749 18.0913L122.77 18.0839L122.44 17.14ZM123.402 16.646L123.979 17.463V17.463L123.402 16.646ZM124.182 15.918L123.43 15.2595L123.418 15.2732L123.406 15.2874L124.182 15.918ZM124.728 15.008L125.666 15.3537L125.728 15.1864V15.008H124.728ZM124.728 11.758H125.728V11.5818L125.668 11.4163L124.728 11.758ZM124.13 10.718L123.325 11.3112L123.343 11.3352L123.362 11.3582L124.13 10.718ZM123.272 9.886L122.658 10.6754L122.682 10.6941L122.707 10.7113L123.272 9.886ZM122.258 9.314L121.887 10.2425L121.894 10.2455L121.902 10.2485L122.258 9.314ZM119.762 9.444L119.315 8.54957L119.308 8.55312L119.301 8.55678L119.762 9.444ZM118.644 10.38L119.418 11.0132L119.425 11.0048L119.432 10.9963L118.644 10.38ZM117.916 11.706L116.971 11.38L117.916 11.706ZM117.942 14.852L117.011 15.2177L117.942 14.852ZM118.722 16.126L117.981 16.7969L118.722 16.126ZM119.892 16.984L119.473 17.892L119.48 17.8949L119.486 17.8978L119.892 16.984ZM120.516 19.26C119.714 19.26 118.99 19.1048 118.331 18.8043L117.501 20.6237C118.437 21.0512 119.447 21.26 120.516 21.26V19.26ZM118.331 18.8043C117.658 18.4967 117.086 18.0762 116.608 17.5404L115.116 18.8716C115.782 19.6185 116.58 20.2033 117.501 20.6237L118.331 18.8043ZM116.608 17.5404C116.121 16.9937 115.731 16.3529 115.442 15.6085L113.578 16.3315C113.948 17.2858 114.459 18.1356 115.116 18.8716L116.608 17.5404ZM115.451 15.6313C115.181 14.8809 115.042 14.0689 115.042 13.188H113.042C113.042 14.2831 113.215 15.3258 113.569 16.3087L115.451 15.6313ZM115.042 13.188C115.042 12.3006 115.174 11.4938 115.429 10.7598L113.539 10.1042C113.205 11.0689 113.042 12.0994 113.042 13.188H115.042ZM115.423 10.7768C115.698 10.027 116.067 9.38415 116.525 8.83822L114.992 7.55378C114.374 8.29051 113.894 9.13836 113.545 10.0872L115.423 10.7768ZM116.525 8.83822C116.973 8.3034 117.503 7.88849 118.121 7.58657L117.243 5.78943C116.371 6.21551 115.618 6.80593 114.992 7.55378L116.525 8.83822ZM118.121 7.58657C118.721 7.29366 119.384 7.142 120.126 7.142V5.142C119.1 5.142 118.134 5.35434 117.243 5.78943L118.121 7.58657ZM120.126 7.142C120.963 7.142 121.682 7.34157 122.31 7.7242L123.35 6.0158C122.384 5.42776 121.3 5.142 120.126 5.142V7.142ZM122.318 7.7291C122.994 8.1318 123.502 8.64403 123.862 9.26828L125.594 8.26772C125.053 7.33197 124.295 6.57887 123.342 6.0109L122.318 7.7291ZM125.728 8.768V1.02H123.728V8.768H125.728ZM124.728 2.02H128.212V0.0199995H124.728V2.02ZM127.212 1.02V15.996H129.212V1.02H127.212ZM127.212 15.996C127.212 16.4188 127.272 16.9625 127.605 17.3899L129.183 16.1621C129.237 16.2307 129.24 16.2728 129.231 16.2368C129.223 16.2026 129.212 16.1271 129.212 15.996H127.212ZM127.605 17.3899C127.975 17.8663 128.521 18.0085 128.959 18.0343L129.077 16.0377C129.009 16.0337 129 16.024 129.026 16.0349C129.058 16.0485 129.124 16.0857 129.183 16.1621L127.605 17.3899ZM128.018 17.036V20H130.018V17.036H128.018ZM128.822 19.0194C128.245 19.1347 127.824 19.182 127.536 19.182V21.182C128.011 21.182 128.578 21.1079 129.214 20.9806L128.822 19.0194ZM127.536 19.182C127.082 19.182 126.803 19.0712 126.618 18.9265L125.386 20.5015C125.998 20.9808 126.742 21.182 127.536 21.182V19.182ZM126.618 18.9265C126.433 18.7815 126.345 18.6211 126.321 18.3891L124.331 18.5949C124.411 19.3682 124.774 20.0225 125.386 20.5015L126.618 18.9265ZM126.322 18.4015L126.244 17.5435L124.252 17.7245L124.33 18.5825L126.322 18.4015ZM124.383 17.1323C123.973 17.8392 123.427 18.362 122.733 18.7228L123.655 20.4972C124.695 19.9566 125.518 19.1621 126.113 18.1357L124.383 17.1323ZM122.74 18.7192C122.028 19.0822 121.291 19.26 120.516 19.26V21.26C121.613 21.26 122.661 21.0045 123.649 20.5008L122.74 18.7192ZM121.426 18.296C121.862 18.296 122.297 18.227 122.727 18.0978L122.153 16.1822C121.89 16.261 121.649 16.296 121.426 16.296V18.296ZM122.77 18.0839C123.203 17.9324 123.607 17.7255 123.979 17.463L122.825 15.829C122.608 15.9825 122.37 16.1049 122.11 16.1961L122.77 18.0839ZM123.979 17.463C124.347 17.2027 124.675 16.8975 124.958 16.5486L123.406 15.2874C123.239 15.4931 123.046 15.6733 122.825 15.829L123.979 17.463ZM124.935 16.5765C125.254 16.2118 125.501 15.8035 125.666 15.3537L123.79 14.6623C123.713 14.8712 123.596 15.0695 123.43 15.2595L124.935 16.5765ZM125.728 15.008V11.758H123.728V15.008H125.728ZM125.668 11.4163C125.49 10.9262 125.232 10.4785 124.898 10.0778L123.362 11.3582C123.548 11.5815 123.689 11.8272 123.788 12.0997L125.668 11.4163ZM124.935 10.1248C124.628 9.70747 124.261 9.35096 123.837 9.06069L122.707 10.7113C122.942 10.8717 123.147 11.0699 123.325 11.3112L124.935 10.1248ZM123.886 9.09665C123.497 8.79398 123.072 8.55402 122.614 8.37951L121.902 10.2485C122.172 10.3513 122.423 10.4927 122.658 10.6754L123.886 9.09665ZM122.63 8.38552C122.174 8.20328 121.702 8.106 121.218 8.106V10.106C121.428 10.106 121.649 10.1474 121.887 10.2425L122.63 8.38552ZM121.218 8.106C120.548 8.106 119.909 8.25255 119.315 8.54957L120.209 10.3384C120.517 10.1848 120.848 10.106 121.218 10.106V8.106ZM119.301 8.55678C118.736 8.85049 118.253 9.25666 117.857 9.76369L119.432 10.9963C119.659 10.706 119.922 10.4882 120.223 10.3312L119.301 8.55678ZM117.87 9.74676C117.478 10.2266 117.18 10.7745 116.971 11.38L118.861 12.032C118.999 11.6322 119.187 11.2961 119.418 11.0132L117.87 9.74676ZM116.971 11.38C116.761 11.9887 116.656 12.6189 116.656 13.266H118.656C118.656 12.8384 118.725 12.4287 118.861 12.032L116.971 11.38ZM116.656 13.266C116.656 13.951 116.771 14.605 117.011 15.2177L118.873 14.4863C118.732 14.1283 118.656 13.725 118.656 13.266H116.656ZM117.011 15.2177C117.243 15.8083 117.565 16.338 117.981 16.7969L119.464 15.4551C119.22 15.186 119.022 14.8664 118.873 14.4863L117.011 15.2177ZM117.981 16.7969C118.401 17.262 118.901 17.6281 119.473 17.892L120.311 16.076C119.981 15.9239 119.702 15.718 119.464 15.4551L117.981 16.7969ZM119.486 17.8978C120.092 18.1672 120.743 18.296 121.426 18.296V16.296C121 16.296 120.628 16.2168 120.298 16.0702L119.486 17.8978ZM132.412 20H131.412V21H132.412V20ZM132.412 6.376V5.376H131.412V6.376H132.412ZM135.896 6.376H136.896V5.376H135.896V6.376ZM135.896 20V21H136.896V20H135.896ZM132.412 4.478H131.412V5.478H132.412V4.478ZM132.412 1.02V0.0199995H131.412V1.02H132.412ZM135.896 1.02H136.896V0.0199995H135.896V1.02ZM135.896 4.478V5.478H136.896V4.478H135.896ZM133.412 20V6.376H131.412V20H133.412ZM132.412 7.376H135.896V5.376H132.412V7.376ZM134.896 6.376V20H136.896V6.376H134.896ZM135.896 19H132.412V21H135.896V19ZM133.412 4.478V1.02H131.412V4.478H133.412ZM132.412 2.02H135.896V0.0199995H132.412V2.02ZM134.896 1.02V4.478H136.896V1.02H134.896ZM135.896 3.478H132.412V5.478H135.896V3.478ZM143.121 19.688L142.725 20.6062L143.121 19.688ZM140.859 18.154L140.123 18.8315L140.133 18.8415L140.142 18.8514L140.859 18.154ZM139.455 15.892L140.387 15.5305L139.455 15.892ZM139.455 10.51L140.387 10.8715L139.455 10.51ZM140.859 8.274L140.133 7.58625L140.132 7.5868L140.859 8.274ZM149.075 6.714L148.672 7.62934L148.679 7.63221L149.075 6.714ZM151.311 8.274L150.575 8.95148L150.585 8.96154L150.594 8.97135L151.311 8.274ZM152.741 10.51L151.809 10.8715L152.741 10.51ZM152.741 15.892L153.673 16.2535L152.741 15.892ZM151.337 18.154L152.063 18.8413L152.072 18.8315L151.337 18.154ZM149.101 19.688L149.497 20.6062L149.101 19.688ZM142.809 14.878L141.864 15.204L141.87 15.224L141.878 15.2437L142.809 14.878ZM143.563 16.152L142.804 16.8028L142.812 16.813L142.821 16.8229L143.563 16.152ZM144.707 17.01L144.274 17.9115L144.289 17.9187L144.304 17.9253L144.707 17.01ZM147.515 17.01L147.918 17.9253L147.933 17.9187L147.948 17.9115L147.515 17.01ZM148.633 16.152L147.891 15.4811L147.882 15.491L147.874 15.5012L148.633 16.152ZM149.387 14.852L148.452 14.4973L148.446 14.5116L148.442 14.526L149.387 14.852ZM149.387 11.55L148.442 11.876L148.446 11.8904L148.452 11.9047L149.387 11.55ZM148.633 10.25L147.874 10.9008L147.882 10.911L147.891 10.9209L148.633 10.25ZM147.515 9.418L147.082 10.3195L147.097 10.3267L147.112 10.3333L147.515 9.418ZM144.707 9.418L145.14 10.3195L144.707 9.418ZM143.563 10.276L142.821 9.60509L142.812 9.61503L142.804 9.62521L143.563 10.276ZM142.809 11.576L141.874 11.2213L141.868 11.2356L141.864 11.25L142.809 11.576ZM146.111 19.26C145.117 19.26 144.258 19.0896 143.517 18.7698L142.725 20.6062C143.751 21.0491 144.886 21.26 146.111 21.26V19.26ZM143.517 18.7698C142.744 18.4364 142.101 17.9971 141.576 17.4566L140.142 18.8514C140.864 19.5935 141.73 20.177 142.725 20.6062L143.517 18.7698ZM141.594 17.4765C141.074 16.9115 140.672 16.2652 140.387 15.5305L138.523 16.2535C138.896 17.2175 139.43 18.0791 140.123 18.8315L141.594 17.4765ZM140.387 15.5305C140.104 14.7996 139.961 14.0298 139.961 13.214H137.961C137.961 14.2702 138.147 15.2857 138.523 16.2535L140.387 15.5305ZM139.961 13.214C139.961 12.3785 140.105 11.6003 140.387 10.8715L138.523 10.1485C138.146 11.1184 137.961 12.1428 137.961 13.214H139.961ZM140.387 10.8715C140.671 10.1391 141.071 9.50533 141.585 8.9612L140.132 7.5868C139.434 8.32533 138.897 9.18219 138.523 10.1485L140.387 10.8715ZM141.585 8.96174C142.11 8.40738 142.75 7.9632 143.517 7.63221L142.725 5.79579C141.724 6.22747 140.856 6.82328 140.133 7.58625L141.585 8.96174ZM143.517 7.63221C144.258 7.31243 145.117 7.142 146.111 7.142V5.142C144.886 5.142 143.751 5.3529 142.725 5.79579L143.517 7.63221ZM146.111 7.142C147.105 7.142 147.952 7.31258 148.672 7.62931L149.478 5.79868C148.464 5.35275 147.335 5.142 146.111 5.142V7.142ZM148.679 7.63221C149.444 7.96222 150.071 8.40355 150.575 8.95148L152.046 7.59652C151.338 6.82711 150.474 6.22844 149.471 5.79579L148.679 7.63221ZM150.594 8.97135C151.123 9.5146 151.527 10.1452 151.809 10.8715L153.673 10.1485C153.296 9.17616 152.747 8.31606 152.028 7.57664L150.594 8.97135ZM151.809 10.8715C152.091 11.6003 152.235 12.3785 152.235 13.214H154.235C154.235 12.1428 154.049 11.1184 153.673 10.1485L151.809 10.8715ZM152.235 13.214C152.235 14.0298 152.092 14.7996 151.809 15.5305L153.673 16.2535C154.049 15.2857 154.235 14.2702 154.235 13.214H152.235ZM151.809 15.5305C151.524 16.2652 151.122 16.9115 150.601 17.4765L152.072 18.8315C152.765 18.0791 153.299 17.2175 153.673 16.2535L151.809 15.5305ZM150.61 17.4668C150.105 18.0009 149.476 18.4373 148.705 18.7698L149.497 20.6062C150.494 20.176 151.355 19.5898 152.063 18.8412L150.61 17.4668ZM148.705 18.7698C147.964 19.0896 147.105 19.26 146.111 19.26V21.26C147.336 21.26 148.47 21.0491 149.497 20.6062L148.705 18.7698ZM141.549 13.214C141.549 13.9162 141.649 14.5828 141.864 15.204L143.754 14.552C143.622 14.1679 143.549 13.7251 143.549 13.214H141.549ZM141.878 15.2437C142.106 15.8238 142.413 16.3469 142.804 16.8028L144.322 15.5012C144.089 15.2291 143.893 14.9028 143.74 14.5123L141.878 15.2437ZM142.821 16.8229C143.236 17.281 143.721 17.6462 144.274 17.9115L145.14 16.1085C144.826 15.9578 144.549 15.751 144.304 15.4811L142.821 16.8229ZM144.304 17.9253C144.872 18.1752 145.478 18.296 146.111 18.296V16.296C145.738 16.296 145.408 16.2261 145.11 16.0947L144.304 17.9253ZM146.111 18.296C146.744 18.296 147.35 18.1752 147.918 17.9253L147.112 16.0947C146.813 16.2261 146.484 16.296 146.111 16.296V18.296ZM147.948 17.9115C148.506 17.6437 148.99 17.2724 149.392 16.8028L147.874 15.5012C147.652 15.7596 147.391 15.9603 147.082 16.1085L147.948 17.9115ZM149.374 16.8229C149.802 16.3508 150.119 15.7975 150.332 15.178L148.442 14.526C148.308 14.9118 148.123 15.2252 147.891 15.4811L149.374 16.8229ZM150.322 15.2067C150.561 14.5771 150.673 13.9004 150.673 13.188H148.673C148.673 13.6889 148.594 14.1216 148.452 14.4973L150.322 15.2067ZM150.673 13.188C150.673 12.4891 150.559 11.8217 150.322 11.1953L148.452 11.9047C148.596 12.2836 148.673 12.7082 148.673 13.188H150.673ZM150.332 11.224C150.119 10.6045 149.802 10.0512 149.374 9.57909L147.891 10.9209C148.123 11.1768 148.308 11.4902 148.442 11.876L150.332 11.224ZM149.392 9.59921C148.984 9.12293 148.49 8.75449 147.918 8.50268L147.112 10.3333C147.407 10.4628 147.658 10.6491 147.874 10.9008L149.392 9.59921ZM147.948 8.51648C147.373 8.24067 146.756 8.106 146.111 8.106V10.106C146.471 10.106 146.79 10.1793 147.082 10.3195L147.948 8.51648ZM146.111 8.106C145.465 8.106 144.849 8.24067 144.274 8.51648L145.14 10.3195C145.432 10.1793 145.751 10.106 146.111 10.106V8.106ZM144.274 8.51648C143.721 8.7818 143.236 9.14701 142.821 9.60509L144.304 10.9469C144.549 10.677 144.826 10.4702 145.14 10.3195L144.274 8.51648ZM142.804 9.62521C142.408 10.087 142.101 10.6236 141.874 11.2213L143.744 11.9307C143.898 11.5231 144.094 11.193 144.322 10.9268L142.804 9.62521ZM141.864 11.25C141.65 11.8683 141.549 12.5257 141.549 13.214H143.549C143.549 12.7237 143.621 12.2891 143.754 11.902L141.864 11.25Z" fill="black"/>
</svg>
